# xmcd
#
# Track frame offsets: 
#        150
#        13266
#        26930
#        39474
#        53383
#        66970
#        85061
#        99911
#        115949
#        130014
#        145189
#        157982
#
# Disc length: 2264 seconds
#
# Revision: 0
# Processed by: cddbd v1.5.2PL0 Copyright (c) Steve Scherf et al.
# Submitted via: ExactAudioCopy v0.95a3
#
DISCID=9408d60c
DTITLE=Monique - Ich bin die glücklichste Frau
DYEAR=1900
DGENRE=Schlager
TTITLE0=Ich bin die glücklichste Frau
TTITLE1=Heute Abend scheint der Mond
TTITLE2=Abrakadabra
TTITLE3=Spürst du das Leben
TTITLE4=Jedes Kind braucht einen Engel
TTITLE5=Ich lieg' in deinen Armen
TTITLE6=Es ist nicht immer einfach
TTITLE7=Du bist Luft für mich
TTITLE8=Mit Musik im Blut
TTITLE9=Eine heisse Nacht in Sevilla
TTITLE10=Wann ist endlich einmal Sonntag
TTITLE11=Halli Hallo wir feiern
EXTD=
EXTT0=
EXTT1=
EXTT2=
EXTT3=
EXTT4=
EXTT5=
EXTT6=
EXTT7=
EXTT8=
EXTT9=
EXTT10=
EXTT11=
PLAYORDER=
